HIERARCHY
ROOT root
{
	OFFSET 0.000000 0.000000 0.000000
	CHANNELS 6 Xposition Yposition Zposition Zrotation Yrotation Xrotation
	JOINT lhip
	{
		OFFSET 0.058581 -0.082280 -0.017664
		CHANNELS 3 Zrotation Yrotation Xrotation
		JOINT lknee
		{
			OFFSET 0.043451 -0.386469 0.008037
			CHANNELS 3 Zrotation Yrotation Xrotation
			JOINT lankle
			{
				OFFSET -0.014790 -0.426874 -0.037428
				CHANNELS 3 Zrotation Yrotation Xrotation
				JOINT ltoe
				{
					OFFSET 0.041054 -0.060286 0.122042
					CHANNELS 3 Zrotation Yrotation Xrotation
					End Site
					{
						OFFSET 0.000000 0.000000 0.000000
					}
				}
			}
		}
	}
	JOINT rhip
	{
		OFFSET -0.060310 -0.090513 -0.013543
		CHANNELS 3 Zrotation Yrotation Xrotation
		JOINT rknee
		{
			OFFSET -0.043257 -0.383688 -0.004843
			CHANNELS 3 Zrotation Yrotation Xrotation
			JOINT rankle
			{
				OFFSET 0.019056 -0.420046 -0.034562
				CHANNELS 3 Zrotation Yrotation Xrotation
				JOINT rtoe
				{
					OFFSET -0.034840 -0.062106 0.130323
					CHANNELS 3 Zrotation Yrotation Xrotation
					End Site
					{
						OFFSET 0.000000 0.000000 0.000000
					}
				}
			}
		}
	}
	JOINT lowerback
	{
		OFFSET 0.004439 0.124404 -0.038385
		CHANNELS 3 Zrotation Yrotation Xrotation
		JOINT upperback
		{
			OFFSET 0.004488 0.137956 0.026820
			CHANNELS 3 Zrotation Yrotation Xrotation
			JOINT chest
			{
				OFFSET -0.002265 0.056032 0.002855
				CHANNELS 3 Zrotation Yrotation Xrotation
				JOINT lowerneck
				{
					OFFSET -0.013390 0.211636 -0.033468
					CHANNELS 3 Zrotation Yrotation Xrotation
					JOINT upperneck
					{
						OFFSET 0.010113 0.088937 0.050410
						CHANNELS 3 Zrotation Yrotation Xrotation
						End Site
						{
							OFFSET 0.000000 0.000000 0.000000
						}
					}
				}
				JOINT lclavicle
				{
					OFFSET 0.071702 0.114000 -0.018898
					CHANNELS 3 Zrotation Yrotation Xrotation
					JOINT lshoulder
					{
						OFFSET 0.122921 0.045205 -0.019046
						CHANNELS 3 Zrotation Yrotation Xrotation
						JOINT lelbow
						{
							OFFSET 0.255332 -0.015649 -0.022946
							CHANNELS 3 Zrotation Yrotation Xrotation
							JOINT lwrist
							{
								OFFSET 0.265709 0.012698 -0.007375
								CHANNELS 3 Zrotation Yrotation Xrotation
								End Site
								{
									OFFSET 0.000000 0.000000 0.000000
								}
							}
						}
					}
				}
				JOINT rclavicle
				{
					OFFSET -0.082954 0.112472 -0.023707
					CHANNELS 3 Zrotation Yrotation Xrotation
					JOINT rshoulder
					{
						OFFSET -0.113228 0.046853 -0.008472
						CHANNELS 3 Zrotation Yrotation Xrotation
						JOINT relbow
						{
							OFFSET -0.260127 -0.014369 -0.031269
							CHANNELS 3 Zrotation Yrotation Xrotation
							JOINT rwrist
							{
								OFFSET -0.269108 0.006794 -0.006027
								CHANNELS 3 Zrotation Yrotation Xrotation
								End Site
								{
									OFFSET 0.000000 0.000000 0.000000
								}
							}
						}
					}
				}
			}
		}
	}
}
MOTION
Frames: 15
Frame Time: 0.033333
0.019062 0.344704 1.021837 174.452787 -0.173154 92.060438 3.278824 6.797283 1.121519 -2.166531 -2.474721 -2.953110 1.158914 11.478052 -11.640496 0.000000 -0.000000 0.000000 -4.805611 -3.014193 -3.651989 2.551688 9.761975 2.515721 7.473127 -7.426460 1.813759 0.000000 -0.000000 0.000000 -3.878342 1.556821 -3.526526 0.530241 -2.427472 9.377655 -1.969197 0.929664 -7.112053 3.049294 -33.526472 -1.162361 15.030939 -22.575799 -24.535267 -9.964920 2.746512 -0.084819 -14.174240 4.269929 22.669178 -118.796132 -54.880204 137.952030 1.806488 -28.525827 0.430760 -1.499863 3.323885 -12.147823 -8.449847 12.496329 -27.699811 -26.977230 29.271793 -53.726415 -19.543773 11.935390 -14.996529 
0.019785 0.343336 1.022156 174.225269 -0.176942 92.006304 3.287577 6.915474 1.054424 -2.147351 -2.264785 -2.903398 0.938426 11.414302 -11.652161 0.000000 -0.000000 0.000000 -4.760942 -2.968554 -3.769725 2.555926 9.836122 2.597092 7.340483 -7.338711 1.914869 0.000000 -0.000000 0.000000 -3.902124 1.360178 -3.342772 0.451039 -2.819071 9.097901 -1.773962 0.949790 -7.446108 2.377078 -33.126821 -1.545511 14.928028 -22.131856 -23.912554 -10.328579 0.302182 -1.263340 -14.568787 -0.290461 21.322985 -122.702171 -57.708407 139.903257 3.664061 -28.036667 -1.979035 -1.585965 4.371691 -12.324845 -8.517778 12.778416 -27.262671 -26.747633 29.023439 -53.027317 -19.622423 11.883887 -14.262823 
0.020141 0.342492 1.022360 174.111358 -0.179370 91.738553 3.352429 6.690403 1.266115 -2.150006 -2.103022 -2.852623 0.886371 11.411242 -11.743176 0.000000 -0.000000 0.000000 -4.756767 -2.860545 -3.602866 2.597274 9.798682 2.610721 7.049452 -7.268508 1.963187 0.000000 -0.000000 0.000000 -3.856896 0.998121 -3.047216 0.289193 -3.459222 9.018199 -1.730474 1.124561 -8.040320 1.371100 -33.502989 -1.617614 14.897957 -21.359934 -22.882546 -11.513003 -2.542674 -2.440512 -15.964406 -5.406486 20.296057 -127.345279 -61.708959 141.223077 7.368114 -26.584517 -7.199181 -1.577528 5.666864 -12.252075 -8.513314 13.042352 -26.897964 -26.635071 28.593888 -52.748410 -19.719997 11.529571 -14.030717 
0.020216 0.341711 1.022207 173.717580 -0.109773 91.532051 3.495483 6.745087 1.534719 -2.177097 -1.758177 -2.906534 0.577285 11.283866 -11.849505 0.000000 -0.000000 0.000000 -4.694334 -2.746678 -3.482728 2.614836 9.855206 2.517323 6.765655 -6.967886 2.076382 0.000000 -0.000000 0.000000 -3.558323 0.966010 -3.021658 -0.055446 -3.766094 9.080415 -1.914841 1.038040 -8.694634 0.191976 -34.201460 -1.349305 14.979517 -20.655152 -21.640579 -12.859938 -5.911012 -3.294691 -18.508229 -11.593538 19.069571 -133.464360 -65.838355 145.515950 9.320650 -24.447671 -10.923451 -1.780776 6.708125 -12.110091 -7.851128 13.439981 -26.904530 -26.462618 28.216458 -52.404231 -19.667165 11.178184 -13.517214 
0.019961 0.340654 1.022065 173.446112 -0.055625 91.389695 3.559439 6.697486 1.731485 -2.154108 -1.483294 -2.981669 0.273958 11.135739 -11.895216 0.000000 -0.000000 0.000000 -4.656528 -2.623816 -3.359824 2.603677 9.752143 2.287129 6.651150 -6.664256 2.326301 0.000000 -0.000000 0.000000 -3.387346 0.736000 -2.925245 -0.422070 -4.300511 8.853429 -2.109939 1.092286 -9.296585 -1.074849 -35.181970 -1.056284 15.024471 -19.577023 -20.009705 -14.204329 -9.635342 -3.829350 -22.385443 -18.484264 18.776929 -139.132519 -70.477755 149.537845 11.864682 -21.206843 -15.321660 -1.900217 7.674064 -11.841618 -7.042896 14.220744 -27.023305 -26.390011 27.524485 -51.576856 -19.602725 10.493728 -13.067439 
0.018991 0.340271 1.021556 173.224299 0.048346 91.280100 3.719017 6.540578 1.908852 -2.278598 -1.146161 -2.982883 0.002419 11.051561 -11.987609 0.000000 -0.000000 0.000000 -4.609417 -2.668705 -3.219138 2.637757 9.789674 2.061621 6.449763 -6.396455 2.491536 0.000000 -0.000000 0.000000 -3.397214 0.511633 -3.033553 -0.626775 -4.996552 8.839061 -2.046370 0.962338 -9.846671 -2.408808 -36.298952 -1.128507 14.917642 -18.348691 -17.992287 -16.132315 -14.297559 -3.692949 -26.254600 -24.917496 19.556854 -143.150401 -75.243399 151.101554 15.541204 -18.333630 -19.402714 -2.030760 9.427301 -11.247763 -6.810829 14.465368 -27.447646 -26.016825 26.488091 -51.608858 -19.914196 10.101861 -12.425876 
0.017652 0.339751 1.021412 172.787846 0.208152 91.186784 3.932182 6.427761 2.133553 -2.360372 -0.954003 -2.950060 -0.317939 11.072673 -12.288725 0.000000 -0.000000 0.000000 -4.487006 -2.527416 -3.259181 2.642926 9.947976 2.054875 6.307966 -6.215953 2.589184 0.000000 -0.000000 0.000000 -3.393189 0.295481 -2.994900 -0.816962 -5.659684 9.118472 -1.874436 0.834027 -10.725854 -3.780703 -37.291036 -1.094597 14.877287 -16.909684 -16.241288 -17.679249 -19.628226 -2.772821 -31.141585 -31.041404 20.840578 -148.328755 -80.283430 154.933938 20.119465 -14.190726 -20.506613 -2.128538 11.284479 -10.775923 -6.430387 14.766140 -28.001259 -25.708252 25.476513 -50.980573 -20.511318 9.607231 -11.679065 
0.016126 0.339867 1.021264 172.210952 0.360599 91.159406 4.069882 6.488680 2.399009 -2.400989 -0.552055 -3.046211 -0.617263 11.013268 -12.351390 0.000000 -0.000000 0.000000 -4.405908 -2.386394 -3.311604 2.641782 10.190622 1.950587 6.357952 -6.050505 2.746441 0.000000 -0.000000 0.000000 -3.530994 -0.073427 -3.021893 -0.756021 -6.589312 9.318356 -1.671996 0.977624 -11.403618 -5.277382 -37.779485 -1.054478 15.215800 -15.603084 -14.818319 -18.099977 -25.130399 -1.911060 -36.577645 -37.088557 23.201209 -154.890609 -86.226924 158.821955 22.283880 -10.274823 -25.186723 -2.757318 13.210065 -10.304721 -5.501558 15.067245 -28.019346 -25.561469 24.500994 -50.251163 -21.397133 8.585995 -11.923801 
0.014356 0.340093 1.021350 171.768340 0.466768 91.221092 4.068723 6.443119 2.353290 -2.377972 -0.016319 -2.870230 -1.010957 10.924033 -12.526960 0.000000 -0.000000 0.000000 -4.364449 -2.173294 -3.410002 2.593522 10.164523 1.731694 6.337972 -5.778848 2.989427 0.000000 -0.000000 0.000000 -3.811575 -0.468151 -2.872522 -0.603662 -7.615220 9.467442 -1.223762 1.067477 -12.077459 -6.217963 -37.727056 -1.423740 15.578203 -14.807277 -13.895182 -18.189049 -30.881212 -1.272394 -41.488039 -43.051135 25.623935 19.727335 -87.117942 -19.338613 23.075269 -9.295644 -28.893175 -3.511033 15.448925 -10.183589 -4.837973 14.833706 -27.839979 -25.030909 23.308727 -49.471822 -21.258446 8.774558 -11.559799 
0.012102 0.340787 1.021686 171.337987 0.616664 91.374107 3.949674 6.519660 2.603900 -2.122336 0.158726 -3.474003 -1.323476 11.090206 -12.355232 0.000000 -0.000000 0.000000 -4.277056 -1.935174 -3.777209 2.576558 10.320487 1.813505 6.281858 -5.764263 3.137041 0.000000 -0.000000 0.000000 -3.865758 -0.725338 -2.754910 -0.375608 -8.523489 9.429407 -0.689172 0.936969 -12.688122 -7.509814 -37.220092 -1.443350 15.908081 -14.198433 -12.987230 -18.714706 -37.066242 -0.120940 -43.471689 -48.814552 26.479610 17.335101 -80.369341 -20.428836 23.881966 -9.166427 -31.890213 -4.372077 18.188260 -10.418106 -4.395497 14.169652 -27.799031 -24.407537 22.084788 -48.994695 -21.621918 8.802875 -10.671950 
0.009713 0.341901 1.022134 170.829427 0.743348 91.545585 3.826039 6.716419 2.803780 -1.993059 0.377893 -3.915916 -1.363963 11.280613 -12.319531 0.000000 -0.000000 0.000000 -4.205618 -1.719254 -4.064249 2.510637 10.642359 1.758935 6.240584 -5.827089 3.338435 0.000000 -0.000000 0.000000 -3.766534 -1.115497 -2.378640 0.013393 -9.434803 8.814520 -0.178397 0.782445 -12.982234 -8.305960 -36.533911 -1.865105 15.783579 -13.152572 -11.839077 -18.553359 -42.312522 0.217609 -44.941552 -53.694928 27.545468 17.364420 -74.032126 -24.240499 23.532301 -7.838022 -36.253849 -5.410136 20.542076 -10.823467 -3.567757 14.447078 -27.416221 -24.317572 20.287069 -48.854868 -22.667791 8.193948 -10.569651 
0.007085 0.343705 1.022249 170.367378 0.756667 91.856717 3.637675 6.843968 2.564821 -2.036019 0.755128 -3.783885 -1.419895 11.437081 -12.360433 0.000000 -0.000000 0.000000 -4.327998 -1.525638 -4.210647 2.413002 10.862983 1.375081 6.313307 -5.771312 3.586215 0.000000 -0.000000 0.000000 -3.540470 -1.724215 -1.951096 0.407827 -10.324789 8.267218 0.107043 0.726120 -13.334373 -8.105395 -36.006353 -2.781230 15.765471 -12.589583 -10.664046 -17.648065 -45.621247 -0.197601 -47.762617 -58.407724 29.552438 13.737813 -67.876832 -22.902479 24.805881 -6.738860 -37.353715 -6.073628 21.695169 -11.395023 -2.545818 15.799977 -27.187974 -24.081117 18.917939 -48.290619 -22.971393 7.601811 -10.828688 
0.004569 0.345713 1.022045 169.337858 0.710914 92.050339 3.395036 7.051893 2.432423 -2.091362 1.288265 -3.522911 -1.478432 11.670829 -12.527337 0.000000 -0.000000 0.000000 -4.534022 -1.270694 -4.497592 2.353145 11.239195 1.310769 6.533392 -5.474323 3.620273 0.000000 -0.000000 0.000000 -3.224270 -2.048390 -2.108001 0.860802 -10.881811 8.389130 0.422575 0.829488 -13.801154 -8.841440 -35.615506 -2.328995 15.959239 -12.702021 -10.188252 -17.129837 -48.018735 -0.469933 -48.533131 -61.247789 30.049593 11.573138 -64.436495 -21.724447 25.602166 -6.366095 -36.018242 -5.898512 23.308970 -11.105913 -2.819959 16.302036 -27.435254 -23.505559 18.166814 -47.279972 -22.932400 7.550859 -10.790646 
0.002505 0.347652 1.021839 168.060390 0.571156 92.042650 3.106241 7.287992 2.528633 -2.235029 1.839537 -3.206498 -1.203449 11.954823 -12.810360 0.000000 -0.000000 0.000000 -4.852142 -1.002281 -4.592013 2.308463 11.772520 1.262033 6.735963 -4.983588 3.656286 0.000000 -0.000000 0.000000 -2.781173 -2.166811 -2.107923 1.159976 -10.985199 8.364434 0.463982 0.951929 -13.871279 -9.260872 -35.656795 -1.770465 16.232705 -12.864513 -10.070533 -16.425583 -49.132549 -0.760992 -48.966274 -62.731537 30.744123 11.409109 -64.066052 -22.398585 25.780546 -5.931989 -36.473444 -5.732170 23.994397 -11.021350 -2.320959 16.810637 -26.982630 -23.815339 18.482023 -46.856802 -22.722540 7.308061 -10.715124 
0.000803 0.349357 1.021503 167.040741 0.391676 91.968223 2.846293 7.409236 2.714493 -2.418422 2.185491 -2.983568 -1.010328 12.251382 -13.032477 0.000000 -0.000000 0.000000 -5.211415 -0.852058 -4.548543 2.313641 12.160629 1.201224 6.848819 -4.511807 3.651403 0.000000 -0.000000 0.000000 -2.326524 -2.351794 -2.050590 1.378234 -11.173143 8.593758 0.401587 1.143348 -14.134227 -9.364338 -35.424440 -1.350971 16.240753 -12.923660 -9.812053 -16.383810 -49.136807 -0.852292 -49.600346 -63.233757 31.298713 11.156762 -64.794178 -21.475998 26.066824 -5.850928 -35.447170 -5.123583 24.229204 -10.834457 -2.249307 17.549014 -26.880107 -24.099703 19.263004 -46.615387 -22.731754 7.290815 -10.157359 
